<?xml version="1.0" encoding="utf-8" ?>
<svg baseProfile="tiny" height="109" version="1.2" viewBox="0,0,109,109" width="109" xmlns="http://www.w3.org/2000/svg" xmlns:ev="http://www.w3.org/2001/xml-events" xmlns:xlink="http://www.w3.org/1999/xlink"><defs /><path d="M47,6 L46,7 L43,7 L42,8 L40,8 L39,9 L38,9 L37,10 L36,10 L35,11 L34,11 L32,13 L31,13 L24,20 L24,21 L22,23 L22,24 L21,25 L21,26 L20,27 L20,28 L19,29 L19,31 L18,32 L18,39 L17,40 L17,44 L18,45 L18,50 L19,51 L19,53 L20,54 L20,56 L21,57 L21,58 L22,59 L22,60 L24,62 L24,63 L32,71 L33,71 L34,72 L35,72 L36,73 L37,73 L38,74 L39,74 L40,75 L41,75 L42,76 L45,76 L46,77 L61,77 L62,76 L65,76 L66,75 L67,75 L68,74 L69,74 L70,73 L71,73 L72,72 L73,72 L75,70 L76,70 L80,66 L80,65 L83,62 L83,61 L85,59 L85,58 L86,57 L86,55 L87,54 L87,52 L88,51 L88,48 L89,47 L89,37 L88,36 L88,32 L87,31 L87,29 L86,28 L86,27 L85,26 L85,25 L84,24 L84,23 L82,21 L82,20 L75,13 L74,13 L72,11 L71,11 L70,10 L69,10 L68,9 L67,9 L66,8 L64,8 L63,7 L60,7 L59,6 Z M47,12 L48,11 L60,11 L61,12 L63,12 L64,13 L66,13 L67,14 L68,14 L71,17 L72,17 L76,21 L76,22 L79,25 L79,26 L81,28 L81,29 L82,30 L82,31 L83,32 L83,35 L84,36 L84,47 L83,48 L83,50 L82,51 L82,53 L81,54 L81,55 L80,56 L80,57 L78,59 L78,60 L74,64 L73,64 L71,62 L71,61 L72,60 L72,48 L71,47 L71,40 L70,39 L69,39 L67,37 L66,37 L65,36 L67,34 L68,34 L69,33 L70,33 L70,32 L71,31 L71,24 L68,21 L67,21 L66,20 L48,20 L47,21 L46,21 L45,22 L44,22 L42,24 L41,24 L39,26 L38,26 L35,29 L35,33 L38,36 L39,36 L41,38 L42,38 L44,40 L45,40 L46,41 L47,41 L48,42 L49,42 L50,43 L51,43 L53,45 L54,45 L57,48 L57,51 L56,52 L55,52 L53,50 L52,50 L50,48 L49,48 L48,47 L47,48 L46,48 L44,50 L43,50 L42,51 L41,51 L40,50 L40,43 L39,42 L39,40 L38,40 L37,39 L35,39 L35,53 L34,54 L34,55 L35,56 L35,58 L34,59 L35,60 L35,61 L37,61 L40,58 L41,58 L44,55 L45,55 L47,53 L48,53 L49,54 L50,54 L51,55 L52,55 L54,57 L55,57 L58,60 L59,60 L60,61 L61,61 L61,45 L58,42 L57,42 L55,40 L54,40 L53,39 L52,39 L50,37 L49,37 L48,36 L47,36 L45,34 L44,34 L41,31 L44,28 L45,28 L48,25 L65,25 L67,27 L67,29 L66,30 L53,30 L52,31 L51,30 L50,31 L49,31 L50,32 L51,32 L52,33 L53,33 L55,35 L56,35 L57,36 L58,36 L60,38 L61,38 L62,39 L63,39 L66,42 L66,43 L67,44 L67,64 L66,65 L66,67 L62,71 L60,71 L59,72 L54,72 L53,73 L52,72 L47,72 L46,71 L44,71 L43,70 L41,70 L40,69 L39,69 L38,68 L37,68 L34,65 L33,65 L29,61 L29,60 L27,58 L27,57 L26,56 L26,55 L25,54 L25,53 L24,52 L24,50 L23,49 L23,34 L24,33 L24,31 L25,30 L25,29 L26,28 L26,27 L28,25 L28,24 L36,16 L37,16 L39,14 L41,14 L42,13 L43,13 L44,12 Z" fill="black" fill-rule="evenodd" /></svg>